<svg width="16" height="16" viewBox="0 0 16 16" fill="none" xmlns="http://www.w3.org/2000/svg">
<path fill-rule="evenodd" clip-rule="evenodd" d="M11.3333 3.9595V2.49994C11.3333 2.31722 11.2337 2.14905 11.0734 2.06133C10.9131 1.97361 10.7177 1.98031 10.5638 2.07881L6.52037 4.66661H3.83333C3.55719 4.66661 3.33333 4.89047 3.33333 5.16661V10.8333C3.33333 11.1094 3.55719 11.3333 3.83333 11.3333H3.95956L2.14645 13.1464C1.95118 13.3417 1.95118 13.6582 2.14645 13.8535C2.34171 14.0487 2.65829 14.0487 2.85355 13.8535L13.8535 2.85349C14.0488 2.65823 14.0488 2.34165 13.8535 2.14639C13.6583 1.95113 13.3417 1.95113 13.1465 2.14639L11.3333 3.9595ZM4.95956 10.3333H4.33333V5.66661H6.66667C6.7622 5.66661 6.85573 5.63924 6.9362 5.58774L10.3333 3.41357V4.9595L4.95956 10.3333Z" fill="#1A1A1A"/>
<path d="M10.3333 12.5865L7.40679 10.7135L6.68286 11.4374L10.5638 13.9212C10.7177 14.0197 10.9131 14.0264 11.0734 13.9387C11.2337 13.8509 11.3333 13.6828 11.3333 13.5001V6.78693L10.3333 7.78693V12.5865Z" fill="#1A1A1A"/>
</svg>
