<svg width="269" height="96" viewBox="0 0 269 96" fill="none" xmlns="http://www.w3.org/2000/svg">
<path d="M77.948 1.63879L94.8855 54.2259L111.412 1.63879H128.623L94.6053 96H67.4843V81.766H84.3826L86.8266 74.9874L60.0549 1.63879H77.948Z" fill="#1A1A1A"/>
<path d="M33.6708 0.00614066C49.4258 0.257784 61.6406 8.42784 64.0609 23.0835H48.0798C46.3041 15.5712 39.8842 12.8394 31.8255 12.8394C24.5862 12.8394 17.7565 15.4347 17.7565 21.3081C17.7565 25.8155 21.308 28.1376 28.1373 29.3669L39.7477 31.5522C54.9092 34.4206 65.2898 39.6112 65.2898 53.2702C65.2897 68.5682 51.3574 76.9002 33.191 76.9002C13.9322 76.9001 1.77581 65.8365 0 51.3582H16.1177C18.03 59.8265 23.7667 64.1974 33.4643 64.1975C42.3426 64.1975 49.3087 60.7824 49.3087 54.909C49.3086 49.0358 43.8455 46.304 35.6504 44.8015L23.9033 42.6162C12.4298 40.4308 1.91218 34.9671 1.91205 21.9912C1.91205 7.92247 15.9814 0 32.9185 0L33.6708 0.00614066Z" fill="#1A1A1A"/>
<path d="M234.874 0C251.675 0 265.061 10.9274 267.793 27.045H251.948C250.2 18.5744 243.555 13.6774 235.27 13.5263L234.874 13.5225C224.903 13.5225 215.615 20.8987 215.615 38.2456C215.615 56.002 225.04 63.5144 234.874 63.5144C244.435 63.5144 250.991 57.5043 252.631 49.9919H268.612C265.197 66.929 250.309 76.9002 234.054 76.9002C211.927 76.9001 198.541 61.0558 198.541 38.2456C198.541 15.9814 212.883 2.32449e-05 234.874 0Z" fill="#1A1A1A"/>
<path d="M170.916 0.280935C188.434 0.628563 194.523 11.8893 194.523 29.5028V75.1241H178.269V34.0108C178.269 22.947 176.902 13.5225 163.926 13.5225C152.863 13.5225 146.716 21.1712 146.716 36.0595V75.1241H130.462V1.63879H146.716V12.1562C150.541 5.73654 158.053 0.273259 170.073 0.273259L170.916 0.280935Z" fill="#1A1A1A"/>
</svg>
