<svg preserveAspectRatio="none" width="100%" height="100%" overflow="visible" style="display: block;" viewBox="0 0 16 16" fill="none" xmlns="http://www.w3.org/2000/svg">
<g id="mute">
<path id="Vector" fill-rule="evenodd" clip-rule="evenodd" d="M11.3333 3.95951V2.49995C11.3333 2.31723 11.2336 2.14905 11.0733 2.06133C10.913 1.97361 10.7177 1.98031 10.5637 2.07881L6.52031 4.66661H3.83328C3.55714 4.66661 3.33328 4.89047 3.33328 5.16661V10.8333C3.33328 11.1094 3.55714 11.3333 3.83328 11.3333H3.9595L2.14639 13.1464C1.95113 13.3417 1.95113 13.6582 2.14639 13.8535C2.34165 14.0487 2.65824 14.0487 2.8535 13.8535L13.8535 2.8535C14.0487 2.65824 14.0487 2.34165 13.8535 2.14639C13.6582 1.95113 13.3417 1.95113 13.1464 2.14639L11.3333 3.95951ZM4.9595 10.3333H4.33328V5.66661H6.66661C6.76214 5.66661 6.85568 5.63924 6.93614 5.58774L10.3333 3.41358V4.95951L4.9595 10.3333Z" fill="var(--fill-0, #7C7C7C)"/>
<path id="Vector_2" d="M10.3334 12.5865L7.40688 10.7135L6.68294 11.4374L10.5639 13.9212C10.7178 14.0197 10.9131 14.0264 11.0735 13.9387C11.2337 13.8509 11.3334 13.6828 11.3334 13.5001V6.78693L10.3334 7.78693V12.5865Z" fill="var(--fill-0, #7C7C7C)"/>
</g>
</svg>
